<?xml version="1.0" encoding="UTF-8"?>
<svg id="Capa_2" data-name="Capa 2" xmlns="http://www.w3.org/2000/svg" viewBox="0 0 64 64">
  <defs>
    <style>
      .cls-1 {
        fill: #c54397;
      }
    </style>
  </defs>
  <g id="Capa_2-2" data-name="Capa 2">
    <g id="Capa_1-2" data-name="Capa 1-2">
      <g>
        <path class="cls-1" d="M59,0H5C2.4.5.39,2.54,0,5.29v53.41c.4,2.82,2.47,4.89,5.3,5.3h53.41c2.75-.39,4.79-2.4,5.29-5V5c-.49-2.53-2.46-4.51-5-5h0ZM48,21.09v2.49h-10.01v-2.49s10.01,0,10.01,0ZM32.33,38.92c-.31,1.11-.81,2-1.65,2.77-1.69,1.46-3.75,2.34-6.07,2.34l-12.61.03v-24.58h12.87c1.45,0,2.78.48,3.99,1.15,1.82,1.06,2.67,2.92,2.55,5-.13,2.2-1.23,4.06-3.37,5.02,4.01,1.56,4.97,4.07,4.29,8.27h0ZM51.93,36.4h-12.87c-.16,2.2,1.28,4.08,3.45,4.45,1.95.35,3.86-.51,4.85-2.31h4.2c-1.06,3.84-3.85,5.66-7.81,5.96-4.25.33-7.99-2.21-9.27-6.26-1.15-3.66-.23-7.65,2.6-10.24,3.59-3.28,9-3.06,12.33.49,1.99,2.12,2.84,5.01,2.51,7.91h0Z"/>
        <path class="cls-1" d="M23.79,33.18h-6.38s0,6.71,0,6.71h6.21c1.15-.12,2.19-.46,2.96-1.38.82-1.21.8-2.8,0-3.95-.7-.87-1.7-1.2-2.79-1.37h0Z"/>
        <path class="cls-1" d="M23.24,29.36c.94-.1,1.79-.38,2.45-1.11.69-1,.7-2.28.09-3.27-.58-.79-1.44-1.1-2.41-1.25h-5.96s0,5.63,0,5.63h5.83Z"/>
        <path class="cls-1" d="M40.24,30.61c-.68.74-1.03,1.64-1.2,2.63h7.93c-.15-1.12-.55-1.92-1.2-2.65-1.52-1.57-4.04-1.59-5.54.03h0Z"/>
      </g>
    </g>
  </g>
</svg>