<?xml version="1.0" encoding="UTF-8"?>
<svg id="Capa_2" data-name="Capa 2" xmlns="http://www.w3.org/2000/svg" viewBox="0 0 64 64">
  <defs>
    <style>
      .cls-1 {
        fill: #c54397;
      }
    </style>
  </defs>
  <g id="Capa_2-2" data-name="Capa 2">
    <path class="cls-1" d="M55.75,0l.76.12c3.88.49,7.04,3.61,7.4,7.49l.09.93-.02,46.93c0,4.62-3.88,8.5-8.5,8.5l-46.93.03-.93-.09c-3.88-.37-7-3.52-7.49-7.4l-.12-.76V8.25c.08-.3.08-.54.13-.88C.67,3.64,3.64.67,7.37.13c.35-.05.65-.05.89-.13h47.5ZM16.51,12.11c-3.09.63-4.89,3.62-4.23,6.56s3.5,4.72,6.38,4.14,4.87-3.46,4.3-6.38-3.38-4.94-6.45-4.31ZM39.19,32.08c1.58.11,2.82.95,3.38,2.38.37.94.62,1.98.62,3.06v13.32c0,.71.65,1.17,1.3,1.17h6.14c.69,0,1.25-.54,1.25-1.26v-12.49c0-3.17-.22-6.55-1.73-9.28-1.12-2.03-2.97-3.38-5.24-3.88-1.97-.43-3.97-.41-5.94.01s-3.57,1.57-4.82,3.25l-.07-1.74c-.03-.74-.43-1.42-1.23-1.42h-6.07c-.71,0-1.16.63-1.16,1.32v24.22c0,.74.54,1.26,1.25,1.26h5.88c.73,0,1.31-.5,1.31-1.26l.02-12.98c0-1.26.44-2.48.99-3.52.82-1.53,2.35-2.29,4.12-2.16ZM20.57,52c.78-.1,1.25-.64,1.25-1.4v-23.96c0-.8-.53-1.45-1.34-1.45h-5.72c-.83,0-1.39.6-1.39,1.45v23.97c0,.82.59,1.39,1.38,1.39h5.82Z"/>
  </g>
</svg>