<?xml version="1.0" encoding="UTF-8"?>
<svg id="Capa_2" data-name="Capa 2" xmlns="http://www.w3.org/2000/svg" viewBox="0 0 64 64">
  <defs>
    <style>
      .cls-1 {
        fill: #c54397;
      }
    </style>
  </defs>
  <g id="Capa_2-2" data-name="Capa 2">
    <path class="cls-1" d="M2.32,2.8C5.07-1.47,13.81.03,16.61,1.53c3.39,1.82,7.63,11.82,6.18,15.1s-4.72,5.28-4.72,5.28c0,0,3.27,10.1,7.81,14.73,4.1,4.18,16.9,9.82,16.9,9.82,0,0,1.85-4.78,5.27-5.28,4.36-.64,12.62,3.46,13.99,5.28,2.27,3,2.93,11.28,0,14.37-5,5.28-27.14,5.84-44.7-13.28C.24,28.94-2.95,10.99,2.32,2.8Z"/>
  </g>
</svg>